<svg width="125" height="41" viewBox="0 0 125 41" fill="none" xmlns="http://www.w3.org/2000/svg">
<path d="M23.6061 6.49708L24.7919 7.63622L24.7699 7.66032L23.6061 6.49708ZM34.5834 30.4191C34.9212 30.142 35.3555 30.01 35.7908 30.0524C36.2261 30.0947 36.6267 30.3078 36.9045 30.6447C37.1823 30.9817 37.3145 31.415 37.2721 31.8492C37.2297 32.2835 37.0161 32.6831 36.6783 32.9603L34.5834 30.4191ZM44.8142 23.8274C44.7104 24.0167 44.5702 24.1837 44.4017 24.319C44.2331 24.4542 44.0396 24.5551 43.832 24.6157C43.6244 24.6763 43.4069 24.6955 43.1919 24.6723C42.9768 24.6491 42.7685 24.5838 42.5787 24.4802C42.389 24.3767 42.2216 24.2368 42.086 24.0687C41.9504 23.9006 41.8493 23.7075 41.7886 23.5004C41.7278 23.2933 41.7085 23.0763 41.7318 22.8618C41.7551 22.6473 41.8205 22.4394 41.9244 22.2501L44.8142 23.8274ZM20.3781 12.0416C20.2249 12.1941 20.0432 12.315 19.8433 12.3974C19.6433 12.4798 19.429 12.5221 19.2127 12.5219C18.9963 12.5217 18.7821 12.479 18.5823 12.3962C18.3825 12.3134 18.201 12.1922 18.0482 12.0395C17.8954 11.8867 17.7742 11.7054 17.6916 11.5059C17.609 11.3064 17.5666 11.0927 17.5668 10.8769C17.567 10.661 17.6098 10.4473 17.6928 10.248C17.7758 10.0487 17.8973 9.86763 18.0504 9.71516L20.3781 12.0395V12.0416ZM43.9183 14.4623C43.9183 9.7524 41.2502 5.80045 37.6072 4.13774C34.0674 2.52322 29.311 2.95259 24.7919 7.63622L22.4203 5.35793C27.7783 -0.197583 34.0059 -1.11547 38.9774 1.15186C43.8392 3.371 47.2121 8.52344 47.2121 14.4645H43.9183V14.4623ZM31.2983 37.1663C30.1718 38.0514 28.9641 38.9934 27.741 39.7075C26.5178 40.4195 25.1212 41 23.6061 41V37.714C24.2868 37.714 25.0861 37.4511 26.0787 36.8706C27.0734 36.2923 28.1033 35.4949 29.2583 34.5857L31.2983 37.1663ZM15.9138 37.1663C12.7824 34.7018 8.77706 31.8803 5.63691 28.3511C2.43746 24.7584 -8.34465e-07 20.3048 -8.34465e-07 14.4645H3.29387C3.29387 19.2774 5.27019 22.9884 8.09852 26.1692C10.9861 29.4114 14.6248 31.9679 17.9538 34.5857L15.9138 37.1663ZM-8.34465e-07 14.4645C-8.34465e-07 8.52344 3.37073 3.371 8.23467 1.15186C13.2062 -1.11547 19.4294 -0.197583 24.7919 5.35793L22.4203 7.63622C17.9011 2.95478 13.1447 2.52541 9.60492 4.13993C5.9619 5.80264 3.29387 9.7524 3.29387 14.4645H-8.34465e-07ZM17.9538 34.5857C19.1088 35.4949 20.1387 36.2923 21.1335 36.8706C22.126 37.4489 22.9253 37.714 23.6061 37.714V41C22.0909 41 20.6943 40.4195 19.4712 39.7075C18.2458 38.9934 17.0403 38.0514 15.9138 37.1663L17.9538 34.5857ZM29.2583 34.5857C31.0063 33.2122 32.7828 31.8978 34.5834 30.4191L36.6783 32.9603C34.8557 34.4565 32.9277 35.8848 31.2983 37.1663L29.2561 34.5857H29.2583ZM41.9244 22.2523C43.2472 19.8698 43.9338 17.188 43.9183 14.4645H47.2121C47.2121 18.0528 46.2898 21.1373 44.8142 23.8274L41.9244 22.2501V22.2523ZM24.7699 7.66032L20.3781 12.0395L18.0504 9.71516L22.4422 5.33603L24.7699 7.66032Z" fill="#F45252"/>
<path d="M58.3939 27.9545H47.5701L42.5162 32.303L35.567 18.6364L33.0401 27.9545H26.0909" stroke="white" stroke-linecap="round" stroke-linejoin="round"/>
<path d="M58.416 28.084C58.248 28.084 58.116 28.036 58.02 27.94C57.924 27.844 57.876 27.704 57.876 27.52V20.008C57.876 19.824 57.924 19.688 58.02 19.6C58.116 19.504 58.248 19.456 58.416 19.456C58.592 19.456 58.728 19.504 58.824 19.6C58.92 19.688 58.968 19.824 58.968 20.008V23.428H58.812C58.98 22.972 59.252 22.628 59.628 22.396C60.012 22.164 60.448 22.048 60.936 22.048C61.408 22.048 61.796 22.136 62.1 22.312C62.404 22.48 62.632 22.736 62.784 23.08C62.936 23.424 63.012 23.856 63.012 24.376V27.52C63.012 27.704 62.964 27.844 62.868 27.94C62.78 28.036 62.648 28.084 62.472 28.084C62.296 28.084 62.16 28.036 62.064 27.94C61.968 27.844 61.92 27.704 61.92 27.52V24.436C61.92 23.916 61.82 23.536 61.62 23.296C61.42 23.056 61.1 22.936 60.66 22.936C60.148 22.936 59.736 23.096 59.424 23.416C59.12 23.728 58.968 24.152 58.968 24.688V27.52C58.968 27.896 58.784 28.084 58.416 28.084ZM67.4432 28.108C66.8112 28.108 66.2672 27.988 65.8112 27.748C65.3632 27.5 65.0152 27.152 64.7672 26.704C64.5192 26.248 64.3952 25.712 64.3952 25.096C64.3952 24.488 64.5152 23.956 64.7552 23.5C65.0032 23.044 65.3392 22.688 65.7632 22.432C66.1952 22.176 66.6872 22.048 67.2392 22.048C67.6312 22.048 67.9832 22.116 68.2952 22.252C68.6152 22.38 68.8872 22.568 69.1112 22.816C69.3352 23.064 69.5032 23.368 69.6152 23.728C69.7352 24.08 69.7952 24.48 69.7952 24.928C69.7952 25.056 69.7552 25.156 69.6752 25.228C69.6032 25.292 69.4952 25.324 69.3512 25.324H65.2472V24.628H69.0752L68.8712 24.796C68.8712 24.38 68.8072 24.028 68.6792 23.74C68.5592 23.444 68.3792 23.22 68.1392 23.068C67.9072 22.916 67.6152 22.84 67.2632 22.84C66.8792 22.84 66.5512 22.932 66.2792 23.116C66.0072 23.292 65.7992 23.544 65.6552 23.872C65.5112 24.192 65.4392 24.564 65.4392 24.988V25.06C65.4392 25.78 65.6112 26.324 65.9552 26.692C66.2992 27.06 66.7952 27.244 67.4432 27.244C67.6992 27.244 67.9592 27.212 68.2232 27.148C68.4952 27.084 68.7552 26.968 69.0032 26.8C69.1232 26.728 69.2312 26.696 69.3272 26.704C69.4312 26.704 69.5152 26.736 69.5792 26.8C69.6432 26.856 69.6832 26.928 69.6992 27.016C69.7152 27.096 69.7032 27.184 69.6632 27.28C69.6232 27.376 69.5472 27.46 69.4352 27.532C69.1712 27.716 68.8552 27.86 68.4872 27.964C68.1272 28.06 67.7792 28.108 67.4432 28.108ZM73.0133 28.108C72.6133 28.108 72.2493 28.028 71.9213 27.868C71.6013 27.708 71.3493 27.492 71.1653 27.22C70.9893 26.948 70.9013 26.644 70.9013 26.308C70.9013 25.876 71.0093 25.536 71.2253 25.288C71.4413 25.04 71.8053 24.864 72.3173 24.76C72.8293 24.648 73.5173 24.592 74.3813 24.592H74.9453V25.288H74.4053C73.7893 25.288 73.3013 25.316 72.9413 25.372C72.5893 25.428 72.3413 25.528 72.1973 25.672C72.0533 25.808 71.9813 26 71.9813 26.248C71.9813 26.56 72.0893 26.816 72.3053 27.016C72.5293 27.216 72.8333 27.316 73.2173 27.316C73.5213 27.316 73.7893 27.244 74.0213 27.1C74.2533 26.948 74.4373 26.748 74.5733 26.5C74.7093 26.244 74.7773 25.952 74.7773 25.624V24.244C74.7773 23.772 74.6813 23.432 74.4893 23.224C74.2973 23.008 73.9733 22.9 73.5173 22.9C73.2533 22.9 72.9813 22.936 72.7013 23.008C72.4213 23.08 72.1293 23.192 71.8253 23.344C71.7053 23.4 71.6013 23.42 71.5133 23.404C71.4253 23.38 71.3533 23.332 71.2973 23.26C71.2493 23.18 71.2213 23.096 71.2133 23.008C71.2133 22.912 71.2333 22.82 71.2733 22.732C71.3213 22.644 71.4013 22.58 71.5133 22.54C71.8653 22.364 72.2133 22.24 72.5573 22.168C72.9093 22.088 73.2373 22.048 73.5413 22.048C74.0613 22.048 74.4893 22.132 74.8253 22.3C75.1613 22.46 75.4133 22.712 75.5813 23.056C75.7493 23.392 75.8333 23.824 75.8333 24.352V27.52C75.8333 27.704 75.7893 27.844 75.7013 27.94C75.6133 28.036 75.4853 28.084 75.3173 28.084C75.1573 28.084 75.0293 28.036 74.9333 27.94C74.8453 27.844 74.8013 27.704 74.8013 27.52V26.668H74.9093C74.8453 26.964 74.7253 27.22 74.5493 27.436C74.3733 27.652 74.1533 27.82 73.8893 27.94C73.6333 28.052 73.3413 28.108 73.0133 28.108ZM78.1158 28.084C77.9318 28.084 77.7918 28.036 77.6958 27.94C77.5998 27.844 77.5518 27.704 77.5518 27.52V22.624C77.5518 22.44 77.5998 22.304 77.6958 22.216C77.7918 22.12 77.9238 22.072 78.0918 22.072C78.2598 22.072 78.3878 22.12 78.4758 22.216C78.5718 22.304 78.6198 22.44 78.6198 22.624V23.548H78.4998C78.6278 23.068 78.8678 22.704 79.2198 22.456C79.5718 22.208 80.0158 22.068 80.5518 22.036C80.6798 22.028 80.7838 22.06 80.8638 22.132C80.9438 22.196 80.9878 22.308 80.9958 22.468C81.0038 22.62 80.9678 22.744 80.8878 22.84C80.8078 22.928 80.6838 22.98 80.5158 22.996L80.2998 23.008C79.7718 23.064 79.3638 23.236 79.0758 23.524C78.7958 23.812 78.6558 24.208 78.6558 24.712V27.52C78.6558 27.704 78.6078 27.844 78.5118 27.94C78.4238 28.036 78.2918 28.084 78.1158 28.084ZM84.6867 28.108C84.2147 28.108 83.8187 28.024 83.4987 27.856C83.1867 27.688 82.9507 27.444 82.7907 27.124C82.6387 26.804 82.5627 26.412 82.5627 25.948V22.996H81.7947C81.6507 22.996 81.5387 22.96 81.4587 22.888C81.3787 22.808 81.3387 22.704 81.3387 22.576C81.3387 22.44 81.3787 22.336 81.4587 22.264C81.5387 22.192 81.6507 22.156 81.7947 22.156H82.5627V20.848C82.5627 20.664 82.6107 20.528 82.7067 20.44C82.8027 20.344 82.9387 20.296 83.1147 20.296C83.2907 20.296 83.4227 20.344 83.5107 20.44C83.6067 20.528 83.6547 20.664 83.6547 20.848V22.156H85.1067C85.2587 22.156 85.3747 22.192 85.4547 22.264C85.5347 22.336 85.5747 22.44 85.5747 22.576C85.5747 22.704 85.5347 22.808 85.4547 22.888C85.3747 22.96 85.2587 22.996 85.1067 22.996H83.6547V25.852C83.6547 26.292 83.7467 26.624 83.9307 26.848C84.1147 27.072 84.4187 27.184 84.8427 27.184C84.9947 27.184 85.1227 27.172 85.2267 27.148C85.3307 27.116 85.4227 27.1 85.5027 27.1C85.5747 27.092 85.6347 27.116 85.6827 27.172C85.7387 27.228 85.7667 27.332 85.7667 27.484C85.7667 27.596 85.7467 27.7 85.7067 27.796C85.6747 27.884 85.6067 27.944 85.5027 27.976C85.4067 28.008 85.2787 28.036 85.1187 28.06C84.9587 28.092 84.8147 28.108 84.6867 28.108ZM87.2595 28.084C87.0835 28.084 86.9475 28.036 86.8515 27.94C86.7555 27.836 86.7075 27.692 86.7075 27.508V20.104C86.7075 19.92 86.7555 19.78 86.8515 19.684C86.9555 19.588 87.0955 19.54 87.2715 19.54H90.1275C91.0395 19.54 91.7395 19.756 92.2275 20.188C92.7235 20.612 92.9715 21.216 92.9715 22C92.9715 22.512 92.8595 22.952 92.6355 23.32C92.4115 23.68 92.0875 23.956 91.6635 24.148C91.2395 24.34 90.7275 24.436 90.1275 24.436L90.2475 24.268H90.5115C90.8315 24.268 91.1075 24.348 91.3395 24.508C91.5795 24.668 91.7915 24.924 91.9755 25.276L93.0795 27.304C93.1515 27.432 93.1835 27.556 93.1755 27.676C93.1675 27.796 93.1235 27.896 93.0435 27.976C92.9635 28.048 92.8475 28.084 92.6955 28.084C92.5355 28.084 92.4075 28.052 92.3115 27.988C92.2155 27.916 92.1315 27.812 92.0595 27.676L90.7635 25.3C90.5875 24.964 90.3875 24.744 90.1635 24.64C89.9395 24.528 89.6395 24.472 89.2635 24.472H87.8235V27.508C87.8235 27.692 87.7755 27.836 87.6795 27.94C87.5915 28.036 87.4515 28.084 87.2595 28.084ZM87.8235 23.608H89.9475C90.5875 23.608 91.0675 23.476 91.3875 23.212C91.7075 22.94 91.8675 22.544 91.8675 22.024C91.8675 21.504 91.7075 21.112 91.3875 20.848C91.0675 20.584 90.5875 20.452 89.9475 20.452H87.8235V23.608ZM96.4626 28.108C96.0626 28.108 95.6986 28.028 95.3706 27.868C95.0506 27.708 94.7986 27.492 94.6146 27.22C94.4386 26.948 94.3506 26.644 94.3506 26.308C94.3506 25.876 94.4586 25.536 94.6746 25.288C94.8906 25.04 95.2546 24.864 95.7666 24.76C96.2786 24.648 96.9666 24.592 97.8306 24.592H98.3946V25.288H97.8546C97.2386 25.288 96.7506 25.316 96.3906 25.372C96.0386 25.428 95.7906 25.528 95.6466 25.672C95.5026 25.808 95.4306 26 95.4306 26.248C95.4306 26.56 95.5386 26.816 95.7546 27.016C95.9786 27.216 96.2826 27.316 96.6666 27.316C96.9706 27.316 97.2386 27.244 97.4706 27.1C97.7026 26.948 97.8866 26.748 98.0226 26.5C98.1586 26.244 98.2266 25.952 98.2266 25.624V24.244C98.2266 23.772 98.1306 23.432 97.9386 23.224C97.7466 23.008 97.4226 22.9 96.9666 22.9C96.7026 22.9 96.4306 22.936 96.1506 23.008C95.8706 23.08 95.5786 23.192 95.2746 23.344C95.1546 23.4 95.0506 23.42 94.9626 23.404C94.8746 23.38 94.8026 23.332 94.7466 23.26C94.6986 23.18 94.6706 23.096 94.6626 23.008C94.6626 22.912 94.6826 22.82 94.7226 22.732C94.7706 22.644 94.8506 22.58 94.9626 22.54C95.3146 22.364 95.6626 22.24 96.0066 22.168C96.3586 22.088 96.6866 22.048 96.9906 22.048C97.5106 22.048 97.9386 22.132 98.2746 22.3C98.6106 22.46 98.8626 22.712 99.0306 23.056C99.1986 23.392 99.2826 23.824 99.2826 24.352V27.52C99.2826 27.704 99.2386 27.844 99.1506 27.94C99.0626 28.036 98.9346 28.084 98.7666 28.084C98.6066 28.084 98.4786 28.036 98.3826 27.94C98.2946 27.844 98.2506 27.704 98.2506 27.52V26.668H98.3586C98.2946 26.964 98.1746 27.22 97.9986 27.436C97.8226 27.652 97.6026 27.82 97.3386 27.94C97.0826 28.052 96.7906 28.108 96.4626 28.108ZM103.425 28.108C102.953 28.108 102.557 28.024 102.237 27.856C101.925 27.688 101.689 27.444 101.529 27.124C101.377 26.804 101.301 26.412 101.301 25.948V22.996H100.533C100.389 22.996 100.277 22.96 100.197 22.888C100.117 22.808 100.077 22.704 100.077 22.576C100.077 22.44 100.117 22.336 100.197 22.264C100.277 22.192 100.389 22.156 100.533 22.156H101.301V20.848C101.301 20.664 101.349 20.528 101.445 20.44C101.541 20.344 101.677 20.296 101.853 20.296C102.029 20.296 102.161 20.344 102.249 20.44C102.345 20.528 102.393 20.664 102.393 20.848V22.156H103.845C103.997 22.156 104.113 22.192 104.193 22.264C104.273 22.336 104.313 22.44 104.313 22.576C104.313 22.704 104.273 22.808 104.193 22.888C104.113 22.96 103.997 22.996 103.845 22.996H102.393V25.852C102.393 26.292 102.485 26.624 102.669 26.848C102.853 27.072 103.157 27.184 103.581 27.184C103.733 27.184 103.861 27.172 103.965 27.148C104.069 27.116 104.161 27.1 104.241 27.1C104.313 27.092 104.373 27.116 104.421 27.172C104.477 27.228 104.505 27.332 104.505 27.484C104.505 27.596 104.485 27.7 104.445 27.796C104.413 27.884 104.345 27.944 104.241 27.976C104.145 28.008 104.017 28.036 103.857 28.06C103.697 28.092 103.553 28.108 103.425 28.108ZM107.943 28.108C107.311 28.108 106.767 27.988 106.311 27.748C105.863 27.5 105.515 27.152 105.267 26.704C105.019 26.248 104.895 25.712 104.895 25.096C104.895 24.488 105.015 23.956 105.255 23.5C105.503 23.044 105.839 22.688 106.263 22.432C106.695 22.176 107.187 22.048 107.739 22.048C108.131 22.048 108.483 22.116 108.795 22.252C109.115 22.38 109.387 22.568 109.611 22.816C109.835 23.064 110.003 23.368 110.115 23.728C110.235 24.08 110.295 24.48 110.295 24.928C110.295 25.056 110.255 25.156 110.175 25.228C110.103 25.292 109.995 25.324 109.851 25.324H105.747V24.628H109.575L109.371 24.796C109.371 24.38 109.307 24.028 109.179 23.74C109.059 23.444 108.879 23.22 108.639 23.068C108.407 22.916 108.115 22.84 107.763 22.84C107.379 22.84 107.051 22.932 106.779 23.116C106.507 23.292 106.299 23.544 106.155 23.872C106.011 24.192 105.939 24.564 105.939 24.988V25.06C105.939 25.78 106.111 26.324 106.455 26.692C106.799 27.06 107.295 27.244 107.943 27.244C108.199 27.244 108.459 27.212 108.723 27.148C108.995 27.084 109.255 26.968 109.503 26.8C109.623 26.728 109.731 26.696 109.827 26.704C109.931 26.704 110.015 26.736 110.079 26.8C110.143 26.856 110.183 26.928 110.199 27.016C110.215 27.096 110.203 27.184 110.163 27.28C110.123 27.376 110.047 27.46 109.935 27.532C109.671 27.716 109.355 27.86 108.987 27.964C108.627 28.06 108.279 28.108 107.943 28.108Z" fill="white"/>
</svg>