<svg width="125" height="41" viewBox="0 0 125 41" fill="none" xmlns="http://www.w3.org/2000/svg">
<path d="M23.6061 6.49708L24.7919 7.63622L24.7699 7.66032L23.6061 6.49708ZM34.5834 30.4191C34.9212 30.142 35.3555 30.01 35.7908 30.0524C36.2261 30.0947 36.6267 30.3078 36.9045 30.6447C37.1823 30.9817 37.3145 31.415 37.2721 31.8492C37.2297 32.2835 37.0161 32.6831 36.6783 32.9603L34.5834 30.4191ZM44.8142 23.8274C44.7104 24.0167 44.5702 24.1837 44.4017 24.319C44.2331 24.4542 44.0396 24.5551 43.832 24.6157C43.6244 24.6763 43.4069 24.6955 43.1919 24.6723C42.9768 24.6491 42.7685 24.5838 42.5787 24.4802C42.389 24.3767 42.2216 24.2368 42.086 24.0687C41.9504 23.9006 41.8493 23.7075 41.7886 23.5004C41.7278 23.2933 41.7085 23.0763 41.7318 22.8618C41.7551 22.6473 41.8205 22.4394 41.9244 22.2501L44.8142 23.8274ZM20.3781 12.0416C20.2249 12.1941 20.0432 12.315 19.8433 12.3974C19.6433 12.4798 19.429 12.5221 19.2127 12.5219C18.9963 12.5217 18.7821 12.479 18.5823 12.3962C18.3825 12.3134 18.201 12.1922 18.0482 12.0395C17.8954 11.8867 17.7742 11.7054 17.6916 11.5059C17.609 11.3064 17.5666 11.0927 17.5668 10.8769C17.567 10.661 17.6098 10.4473 17.6928 10.248C17.7758 10.0487 17.8973 9.86763 18.0504 9.71516L20.3781 12.0395V12.0416ZM43.9183 14.4623C43.9183 9.7524 41.2502 5.80045 37.6072 4.13774C34.0674 2.52322 29.311 2.95259 24.7919 7.63622L22.4203 5.35793C27.7783 -0.197583 34.0059 -1.11547 38.9774 1.15186C43.8392 3.371 47.2121 8.52344 47.2121 14.4645H43.9183V14.4623ZM31.2983 37.1663C30.1718 38.0514 28.9641 38.9934 27.741 39.7075C26.5178 40.4195 25.1212 41 23.6061 41V37.714C24.2868 37.714 25.0861 37.4511 26.0787 36.8706C27.0734 36.2923 28.1033 35.4949 29.2583 34.5857L31.2983 37.1663ZM15.9138 37.1663C12.7824 34.7018 8.77706 31.8803 5.63691 28.3511C2.43746 24.7584 -8.34465e-07 20.3048 -8.34465e-07 14.4645H3.29387C3.29387 19.2774 5.27019 22.9884 8.09852 26.1692C10.9861 29.4114 14.6248 31.9679 17.9538 34.5857L15.9138 37.1663ZM-8.34465e-07 14.4645C-8.34465e-07 8.52344 3.37073 3.371 8.23467 1.15186C13.2062 -1.11547 19.4294 -0.197583 24.7919 5.35793L22.4203 7.63622C17.9011 2.95478 13.1447 2.52541 9.60492 4.13993C5.9619 5.80264 3.29387 9.7524 3.29387 14.4645H-8.34465e-07ZM17.9538 34.5857C19.1088 35.4949 20.1387 36.2923 21.1335 36.8706C22.126 37.4489 22.9253 37.714 23.6061 37.714V41C22.0909 41 20.6943 40.4195 19.4712 39.7075C18.2458 38.9934 17.0403 38.0514 15.9138 37.1663L17.9538 34.5857ZM29.2583 34.5857C31.0063 33.2122 32.7828 31.8978 34.5834 30.4191L36.6783 32.9603C34.8557 34.4565 32.9277 35.8848 31.2983 37.1663L29.2561 34.5857H29.2583ZM41.9244 22.2523C43.2472 19.8698 43.9338 17.188 43.9183 14.4645H47.2121C47.2121 18.0528 46.2898 21.1373 44.8142 23.8274L41.9244 22.2501V22.2523ZM24.7699 7.66032L20.3781 12.0395L18.0504 9.71516L22.4422 5.33603L24.7699 7.66032Z" fill="#F45252"/>
<path d="M58.3939 27.9545H47.5701L42.5162 32.303L35.567 18.6364L33.0401 27.9545H26.0909" stroke="white" stroke-linecap="round" stroke-linejoin="round"/>
<path d="M60.692 29.117C60.0507 29.117 59.496 28.9827 59.028 28.714C58.56 28.4367 58.2003 28.051 57.949 27.557C57.6977 27.0543 57.572 26.465 57.572 25.789C57.572 25.2863 57.6413 24.8357 57.78 24.437C57.9273 24.0383 58.1353 23.7003 58.404 23.423C58.6727 23.137 58.9977 22.9203 59.379 22.773C59.769 22.6257 60.2067 22.552 60.692 22.552C60.9953 22.552 61.316 22.5997 61.654 22.695C61.992 22.7903 62.304 22.9463 62.59 23.163C62.6853 23.2323 62.746 23.3147 62.772 23.41C62.798 23.4967 62.798 23.5877 62.772 23.683C62.7547 23.7783 62.7113 23.8607 62.642 23.93C62.5813 23.9907 62.499 24.0253 62.395 24.034C62.2997 24.0427 62.1957 24.0123 62.083 23.943C61.875 23.787 61.654 23.6743 61.42 23.605C61.1947 23.5357 60.978 23.501 60.77 23.501C60.4493 23.501 60.1633 23.553 59.912 23.657C59.6693 23.761 59.4613 23.9127 59.288 24.112C59.1233 24.3027 58.9977 24.541 58.911 24.827C58.8243 25.1043 58.781 25.4293 58.781 25.802C58.781 26.5387 58.9543 27.1193 59.301 27.544C59.6477 27.96 60.1373 28.168 60.77 28.168C60.978 28.168 61.1947 28.1377 61.42 28.077C61.6453 28.0077 61.8663 27.895 62.083 27.739C62.1957 27.6697 62.2997 27.6437 62.395 27.661C62.4903 27.6697 62.5683 27.7087 62.629 27.778C62.6983 27.8387 62.7417 27.9167 62.759 28.012C62.7763 28.0987 62.7677 28.1897 62.733 28.285C62.707 28.3803 62.6463 28.4583 62.551 28.519C62.2737 28.727 61.9703 28.8787 61.641 28.974C61.3117 29.0693 60.9953 29.117 60.692 29.117ZM65.9562 29.117C65.5229 29.117 65.1285 29.0303 64.7732 28.857C64.4265 28.6837 64.1535 28.4497 63.9542 28.155C63.7635 27.8603 63.6682 27.531 63.6682 27.167C63.6682 26.699 63.7852 26.3307 64.0192 26.062C64.2532 25.7933 64.6475 25.6027 65.2022 25.49C65.7569 25.3687 66.5022 25.308 67.4382 25.308H68.0492V26.062H67.4642C66.7969 26.062 66.2682 26.0923 65.8782 26.153C65.4969 26.2137 65.2282 26.322 65.0722 26.478C64.9162 26.6253 64.8382 26.8333 64.8382 27.102C64.8382 27.44 64.9552 27.7173 65.1892 27.934C65.4319 28.1507 65.7612 28.259 66.1772 28.259C66.5065 28.259 66.7969 28.181 67.0482 28.025C67.2995 27.8603 67.4989 27.6437 67.6462 27.375C67.7935 27.0977 67.8672 26.7813 67.8672 26.426V24.931C67.8672 24.4197 67.7632 24.0513 67.5552 23.826C67.3472 23.592 66.9962 23.475 66.5022 23.475C66.2162 23.475 65.9215 23.514 65.6182 23.592C65.3149 23.67 64.9985 23.7913 64.6692 23.956C64.5392 24.0167 64.4265 24.0383 64.3312 24.021C64.2359 23.995 64.1579 23.943 64.0972 23.865C64.0452 23.7783 64.0149 23.6873 64.0062 23.592C64.0062 23.488 64.0279 23.3883 64.0712 23.293C64.1232 23.1977 64.2099 23.1283 64.3312 23.085C64.7125 22.8943 65.0895 22.76 65.4622 22.682C65.8435 22.5953 66.1989 22.552 66.5282 22.552C67.0915 22.552 67.5552 22.643 67.9192 22.825C68.2832 22.9983 68.5562 23.2713 68.7382 23.644C68.9202 24.008 69.0112 24.476 69.0112 25.048V28.48C69.0112 28.6793 68.9635 28.831 68.8682 28.935C68.7729 29.039 68.6342 29.091 68.4522 29.091C68.2789 29.091 68.1402 29.039 68.0362 28.935C67.9409 28.831 67.8932 28.6793 67.8932 28.48V27.557H68.0102C67.9409 27.8777 67.8109 28.155 67.6202 28.389C67.4295 28.623 67.1912 28.805 66.9052 28.935C66.6279 29.0563 66.3115 29.117 65.9562 29.117ZM71.4838 29.091C71.2845 29.091 71.1328 29.039 71.0288 28.935C70.9248 28.831 70.8728 28.6793 70.8728 28.48V23.176C70.8728 22.9767 70.9248 22.8293 71.0288 22.734C71.1328 22.63 71.2758 22.578 71.4578 22.578C71.6398 22.578 71.7785 22.63 71.8738 22.734C71.9778 22.8293 72.0298 22.9767 72.0298 23.176V24.177H71.8998C72.0385 23.657 72.2985 23.2627 72.6798 22.994C73.0612 22.7253 73.5422 22.5737 74.1228 22.539C74.2615 22.5303 74.3742 22.565 74.4608 22.643C74.5475 22.7123 74.5952 22.8337 74.6038 23.007C74.6125 23.1717 74.5735 23.306 74.4868 23.41C74.4002 23.5053 74.2658 23.5617 74.0838 23.579L73.8498 23.592C73.2778 23.6527 72.8358 23.839 72.5238 24.151C72.2205 24.463 72.0688 24.892 72.0688 25.438V28.48C72.0688 28.6793 72.0168 28.831 71.9128 28.935C71.8175 29.039 71.6745 29.091 71.4838 29.091ZM77.95 29.117C77.3953 29.117 76.9057 28.987 76.481 28.727C76.065 28.4583 75.74 28.077 75.506 27.583C75.272 27.0803 75.155 26.4953 75.155 25.828C75.155 25.152 75.2677 24.5713 75.493 24.086C75.727 23.592 76.052 23.215 76.468 22.955C76.8927 22.6863 77.3867 22.552 77.95 22.552C78.5133 22.552 78.9987 22.695 79.406 22.981C79.8133 23.2583 80.0863 23.631 80.225 24.099H80.082V20.342C80.082 20.1427 80.1297 19.9953 80.225 19.9C80.329 19.796 80.4763 19.744 80.667 19.744C80.8577 19.744 81.005 19.796 81.109 19.9C81.213 19.9953 81.265 20.1427 81.265 20.342V28.48C81.265 28.6793 81.213 28.831 81.109 28.935C81.005 29.039 80.8577 29.091 80.667 29.091C80.485 29.091 80.342 29.039 80.238 28.935C80.134 28.831 80.082 28.6793 80.082 28.48V27.297L80.225 27.531C80.095 28.0163 79.822 28.402 79.406 28.688C78.9987 28.974 78.5133 29.117 77.95 29.117ZM78.223 28.181C78.6043 28.181 78.9337 28.09 79.211 27.908C79.497 27.726 79.7137 27.4617 79.861 27.115C80.017 26.7683 80.095 26.3393 80.095 25.828C80.095 25.0653 79.926 24.4847 79.588 24.086C79.25 23.6873 78.795 23.488 78.223 23.488C77.8503 23.488 77.521 23.579 77.235 23.761C76.9577 23.9343 76.741 24.1943 76.585 24.541C76.429 24.8877 76.351 25.3167 76.351 25.828C76.351 26.5907 76.52 27.1757 76.858 27.583C77.2047 27.9817 77.6597 28.181 78.223 28.181ZM83.7469 29.065C83.5649 29.065 83.4219 29.0087 83.3179 28.896C83.2139 28.7833 83.1619 28.6273 83.1619 28.428V23.241C83.1619 23.033 83.2139 22.877 83.3179 22.773C83.4219 22.6603 83.5649 22.604 83.7469 22.604C83.9376 22.604 84.0849 22.6603 84.1889 22.773C84.2929 22.877 84.3449 23.033 84.3449 23.241V28.428C84.3449 28.6273 84.2929 28.7833 84.1889 28.896C84.0936 29.0087 83.9462 29.065 83.7469 29.065ZM83.7469 21.2C83.5129 21.2 83.3266 21.1393 83.1879 21.018C83.0579 20.888 82.9929 20.719 82.9929 20.511C82.9929 20.2857 83.0579 20.1167 83.1879 20.004C83.3266 19.8827 83.5129 19.822 83.7469 19.822C83.9982 19.822 84.1846 19.8827 84.3059 20.004C84.4359 20.1167 84.5009 20.2857 84.5009 20.511C84.5009 20.719 84.4359 20.888 84.3059 21.018C84.1846 21.1393 83.9982 21.2 83.7469 21.2ZM88.9379 29.117C88.3139 29.117 87.7722 28.9827 87.3129 28.714C86.8535 28.4453 86.4982 28.064 86.2469 27.57C85.9955 27.076 85.8699 26.4953 85.8699 25.828C85.8699 25.3253 85.9392 24.8747 86.0779 24.476C86.2252 24.0687 86.4332 23.722 86.7019 23.436C86.9705 23.15 87.2912 22.9333 87.6639 22.786C88.0452 22.63 88.4699 22.552 88.9379 22.552C89.5619 22.552 90.1035 22.6863 90.5629 22.955C91.0222 23.2237 91.3775 23.605 91.6289 24.099C91.8802 24.5843 92.0059 25.1607 92.0059 25.828C92.0059 26.3307 91.9322 26.7857 91.7849 27.193C91.6462 27.6003 91.4425 27.947 91.1739 28.233C90.9052 28.519 90.5802 28.74 90.1989 28.896C89.8262 29.0433 89.4059 29.117 88.9379 29.117ZM88.9379 28.181C89.3192 28.181 89.6485 28.09 89.9259 27.908C90.2119 27.726 90.4285 27.4617 90.5759 27.115C90.7319 26.7683 90.8099 26.3393 90.8099 25.828C90.8099 25.0653 90.6409 24.4847 90.3029 24.086C89.9649 23.6873 89.5099 23.488 88.9379 23.488C88.5652 23.488 88.2359 23.579 87.9499 23.761C87.6725 23.9343 87.4559 24.1943 87.2999 24.541C87.1439 24.8877 87.0659 25.3167 87.0659 25.828C87.0659 26.5907 87.2349 27.1757 87.5729 27.583C87.9195 27.9817 88.3745 28.181 88.9379 28.181ZM96.5243 29.091C96.3249 29.091 96.1733 29.039 96.0693 28.935C95.9653 28.8223 95.9133 28.6663 95.9133 28.467V20.862H93.0663C92.9016 20.862 92.7716 20.8187 92.6763 20.732C92.5809 20.6367 92.5333 20.5067 92.5333 20.342C92.5333 20.1773 92.5809 20.0517 92.6763 19.965C92.7716 19.8783 92.9016 19.835 93.0663 19.835H99.9693C100.143 19.835 100.273 19.8783 100.359 19.965C100.455 20.0517 100.502 20.1773 100.502 20.342C100.502 20.5067 100.455 20.6367 100.359 20.732C100.273 20.8187 100.143 20.862 99.9693 20.862H97.1223V28.467C97.1223 28.6663 97.0703 28.8223 96.9663 28.935C96.8709 29.039 96.7236 29.091 96.5243 29.091ZM103.34 29.117C102.655 29.117 102.066 28.987 101.572 28.727C101.086 28.4583 100.709 28.0813 100.441 27.596C100.172 27.102 100.038 26.5213 100.038 25.854C100.038 25.1953 100.168 24.619 100.428 24.125C100.696 23.631 101.06 23.2453 101.52 22.968C101.988 22.6907 102.521 22.552 103.119 22.552C103.543 22.552 103.925 22.6257 104.263 22.773C104.609 22.9117 104.904 23.1153 105.147 23.384C105.389 23.6527 105.571 23.982 105.693 24.372C105.823 24.7533 105.888 25.1867 105.888 25.672C105.888 25.8107 105.844 25.919 105.758 25.997C105.68 26.0663 105.563 26.101 105.407 26.101H100.961V25.347H105.108L104.887 25.529C104.887 25.0783 104.817 24.697 104.679 24.385C104.549 24.0643 104.354 23.8217 104.094 23.657C103.842 23.4923 103.526 23.41 103.145 23.41C102.729 23.41 102.373 23.5097 102.079 23.709C101.784 23.8997 101.559 24.1727 101.403 24.528C101.247 24.8747 101.169 25.2777 101.169 25.737V25.815C101.169 26.595 101.355 27.1843 101.728 27.583C102.1 27.9817 102.638 28.181 103.34 28.181C103.617 28.181 103.899 28.1463 104.185 28.077C104.479 28.0077 104.761 27.882 105.03 27.7C105.16 27.622 105.277 27.5873 105.381 27.596C105.493 27.596 105.584 27.6307 105.654 27.7C105.723 27.7607 105.766 27.8387 105.784 27.934C105.801 28.0207 105.788 28.116 105.745 28.22C105.701 28.324 105.619 28.415 105.498 28.493C105.212 28.6923 104.869 28.8483 104.471 28.961C104.081 29.065 103.704 29.117 103.34 29.117ZM110.102 29.117C109.461 29.117 108.906 28.9827 108.438 28.714C107.97 28.4367 107.61 28.051 107.359 27.557C107.108 27.0543 106.982 26.465 106.982 25.789C106.982 25.2863 107.051 24.8357 107.19 24.437C107.337 24.0383 107.545 23.7003 107.814 23.423C108.083 23.137 108.408 22.9203 108.789 22.773C109.179 22.6257 109.617 22.552 110.102 22.552C110.405 22.552 110.726 22.5997 111.064 22.695C111.402 22.7903 111.714 22.9463 112 23.163C112.095 23.2323 112.156 23.3147 112.182 23.41C112.208 23.4967 112.208 23.5877 112.182 23.683C112.165 23.7783 112.121 23.8607 112.052 23.93C111.991 23.9907 111.909 24.0253 111.805 24.034C111.71 24.0427 111.606 24.0123 111.493 23.943C111.285 23.787 111.064 23.6743 110.83 23.605C110.605 23.5357 110.388 23.501 110.18 23.501C109.859 23.501 109.573 23.553 109.322 23.657C109.079 23.761 108.871 23.9127 108.698 24.112C108.533 24.3027 108.408 24.541 108.321 24.827C108.234 25.1043 108.191 25.4293 108.191 25.802C108.191 26.5387 108.364 27.1193 108.711 27.544C109.058 27.96 109.547 28.168 110.18 28.168C110.388 28.168 110.605 28.1377 110.83 28.077C111.055 28.0077 111.276 27.895 111.493 27.739C111.606 27.6697 111.71 27.6437 111.805 27.661C111.9 27.6697 111.978 27.7087 112.039 27.778C112.108 27.8387 112.152 27.9167 112.169 28.012C112.186 28.0987 112.178 28.1897 112.143 28.285C112.117 28.3803 112.056 28.4583 111.961 28.519C111.684 28.727 111.38 28.8787 111.051 28.974C110.722 29.0693 110.405 29.117 110.102 29.117ZM113.987 29.091C113.805 29.091 113.662 29.039 113.558 28.935C113.454 28.831 113.402 28.6793 113.402 28.48V20.342C113.402 20.1427 113.454 19.9953 113.558 19.9C113.662 19.796 113.805 19.744 113.987 19.744C114.178 19.744 114.325 19.796 114.429 19.9C114.533 19.9953 114.585 20.1427 114.585 20.342V24.047H114.416C114.598 23.553 114.893 23.1803 115.3 22.929C115.716 22.6777 116.188 22.552 116.717 22.552C117.228 22.552 117.649 22.6473 117.978 22.838C118.307 23.02 118.554 23.2973 118.719 23.67C118.884 24.0427 118.966 24.5107 118.966 25.074V28.48C118.966 28.6793 118.914 28.831 118.81 28.935C118.715 29.039 118.572 29.091 118.381 29.091C118.19 29.091 118.043 29.039 117.939 28.935C117.835 28.831 117.783 28.6793 117.783 28.48V25.139C117.783 24.5757 117.675 24.164 117.458 23.904C117.241 23.644 116.895 23.514 116.418 23.514C115.863 23.514 115.417 23.6873 115.079 24.034C114.75 24.372 114.585 24.8313 114.585 25.412V28.48C114.585 28.8873 114.386 29.091 113.987 29.091Z" fill="white"/>
</svg>
